<mxfile host="app.diagrams.net" agent="Mozilla/5.0 (Windows NT 10.0; Win64; x64) AppleWebKit/537.36 (KHTML, like Gecko) Chrome/140.0.0.0 Safari/537.36 Edg/140.0.0.0" version="28.2.3">
  <diagram name="PÃ¡gina-1" id="iEmrHECsdAc8jmUu9pdT">
    <mxGraphModel dx="473" dy="262" grid="1" gridSize="10" guides="1" tooltips="1" connect="1" arrows="1" fold="1" page="1" pageScale="1" pageWidth="827" pageHeight="1169" math="0" shadow="0">
      <root>
        <mxCell id="0" />
        <mxCell id="1" parent="0" />
        <mxCell id="5_Pd2rcUk1VBi7alNegC-5" value="" style="edgeStyle=orthogonalEdgeStyle;rounded=0;orthogonalLoop=1;jettySize=auto;html=1;" edge="1" parent="1" source="5_Pd2rcUk1VBi7alNegC-1" target="5_Pd2rcUk1VBi7alNegC-4">
          <mxGeometry relative="1" as="geometry" />
        </mxCell>
        <mxCell id="5_Pd2rcUk1VBi7alNegC-1" value="Inicio" style="ellipse;whiteSpace=wrap;html=1;" vertex="1" parent="1">
          <mxGeometry x="10" y="10" width="120" height="30" as="geometry" />
        </mxCell>
        <mxCell id="5_Pd2rcUk1VBi7alNegC-8" value="" style="edgeStyle=orthogonalEdgeStyle;rounded=0;orthogonalLoop=1;jettySize=auto;html=1;" edge="1" parent="1" source="5_Pd2rcUk1VBi7alNegC-4" target="5_Pd2rcUk1VBi7alNegC-7">
          <mxGeometry relative="1" as="geometry" />
        </mxCell>
        <mxCell id="5_Pd2rcUk1VBi7alNegC-4" value="Registar litros&lt;div&gt;Registar os Kmi e kmf&lt;/div&gt;" style="shape=parallelogram;perimeter=parallelogramPerimeter;whiteSpace=wrap;html=1;fixedSize=1;" vertex="1" parent="1">
          <mxGeometry x="10" y="60" width="120" height="60" as="geometry" />
        </mxCell>
        <mxCell id="5_Pd2rcUk1VBi7alNegC-10" value="" style="edgeStyle=orthogonalEdgeStyle;rounded=0;orthogonalLoop=1;jettySize=auto;html=1;" edge="1" parent="1" source="5_Pd2rcUk1VBi7alNegC-7" target="5_Pd2rcUk1VBi7alNegC-9">
          <mxGeometry relative="1" as="geometry" />
        </mxCell>
        <mxCell id="5_Pd2rcUk1VBi7alNegC-7" value="Gastos = 100*gasolina/(kmf - kmi)" style="rounded=0;whiteSpace=wrap;html=1;" vertex="1" parent="1">
          <mxGeometry x="160" y="60" width="120" height="60" as="geometry" />
        </mxCell>
        <mxCell id="5_Pd2rcUk1VBi7alNegC-9" value="LER Gastos" style="shape=parallelogram;perimeter=parallelogramPerimeter;whiteSpace=wrap;html=1;fixedSize=1;" vertex="1" parent="1">
          <mxGeometry x="150" y="150" width="120" height="60" as="geometry" />
        </mxCell>
      </root>
    </mxGraphModel>
  </diagram>
</mxfile>
